<svg width="400" height="300" viewBox="0 0 400 300" fill="none" xmlns="http://www.w3.org/2000/svg">
<g clip-path="url(#clip0_401_9)">
<rect width="400" height="300" fill="#1B1B1F"/>
<g filter="url(#filter0_d_401_9)">
<path d="M49.7412 177V97H71.46V159.5H103.804V177H49.7412ZM112.896 177V117H133.833V128.406H134.458C135.552 124.187 137.284 121.102 139.653 119.148C142.049 117.195 144.849 116.219 148.052 116.219C148.989 116.219 149.914 116.297 150.825 116.453C151.763 116.583 152.661 116.779 153.521 117.039V135.438C152.453 135.073 151.138 134.799 149.575 134.617C148.013 134.435 146.672 134.344 145.552 134.344C143.442 134.344 141.541 134.826 139.849 135.789C138.182 136.727 136.867 138.055 135.903 139.773C134.94 141.466 134.458 143.458 134.458 145.75V177H112.896ZM185.903 178.094C179.497 178.094 173.976 176.87 169.341 174.422C164.731 171.948 161.177 168.406 158.677 163.797C156.203 159.161 154.966 153.615 154.966 147.156C154.966 140.958 156.216 135.542 158.716 130.906C161.216 126.271 164.744 122.664 169.302 120.086C173.859 117.508 179.237 116.219 185.435 116.219C189.966 116.219 194.067 116.922 197.739 118.328C201.411 119.734 204.549 121.779 207.153 124.461C209.757 127.117 211.763 130.346 213.169 134.148C214.575 137.951 215.278 142.234 215.278 147V152H161.685V140.125H195.435C195.409 138.406 194.966 136.896 194.106 135.594C193.273 134.266 192.14 133.237 190.708 132.508C189.302 131.753 187.7 131.375 185.903 131.375C184.159 131.375 182.557 131.753 181.099 132.508C179.64 133.237 178.468 134.253 177.583 135.555C176.724 136.857 176.268 138.38 176.216 140.125V152.938C176.216 154.865 176.619 156.583 177.427 158.094C178.234 159.604 179.393 160.789 180.903 161.648C182.414 162.508 184.237 162.938 186.372 162.938C187.856 162.938 189.211 162.729 190.435 162.312C191.685 161.896 192.752 161.297 193.638 160.516C194.523 159.708 195.174 158.745 195.591 157.625H215.278C214.601 161.792 213 165.411 210.474 168.484C207.948 171.531 204.601 173.901 200.435 175.594C196.294 177.26 191.45 178.094 185.903 178.094ZM260.015 117V132.625H219.858V117H260.015ZM227.515 177V115.281C227.515 110.333 228.4 106.232 230.171 102.977C231.942 99.7214 234.442 97.2865 237.671 95.6719C240.9 94.0573 244.702 93.25 249.077 93.25C251.812 93.25 254.468 93.4583 257.046 93.875C259.65 94.2917 261.577 94.6562 262.827 94.9687L259.702 110.438C258.921 110.203 258.009 110.021 256.968 109.891C255.926 109.734 255.015 109.656 254.233 109.656C252.202 109.656 250.835 110.086 250.132 110.945C249.429 111.805 249.077 112.937 249.077 114.344V177H227.515ZM345.522 137C345.522 145.906 343.791 153.419 340.327 159.539C336.864 165.633 332.189 170.255 326.304 173.406C320.418 176.531 313.856 178.094 306.616 178.094C299.325 178.094 292.736 176.518 286.851 173.367C280.991 170.19 276.33 165.555 272.866 159.461C269.429 153.341 267.71 145.854 267.71 137C267.71 128.094 269.429 120.594 272.866 114.5C276.33 108.38 280.991 103.758 286.851 100.633C292.736 97.4818 299.325 95.9062 306.616 95.9062C313.856 95.9062 320.418 97.4818 326.304 100.633C332.189 103.758 336.864 108.38 340.327 114.5C343.791 120.594 345.522 128.094 345.522 137ZM323.179 137C323.179 132.208 322.541 128.172 321.265 124.891C320.015 121.583 318.153 119.083 315.679 117.391C313.231 115.672 310.21 114.812 306.616 114.812C303.022 114.812 299.989 115.672 297.515 117.391C295.067 119.083 293.205 121.583 291.929 124.891C290.679 128.172 290.054 132.208 290.054 137C290.054 141.792 290.679 145.841 291.929 149.148C293.205 152.43 295.067 154.93 297.515 156.648C299.989 158.341 303.022 159.187 306.616 159.187C310.21 159.187 313.231 158.341 315.679 156.648C318.153 154.93 320.015 152.43 321.265 149.148C322.541 145.841 323.179 141.792 323.179 137Z" fill="#1B1B1F"/>
</g>
<path d="M51.7412 181V101H73.46V163.5H105.804V181H51.7412ZM114.896 181V121H135.833V132.406H136.458C137.552 128.187 139.284 125.102 141.653 123.148C144.049 121.195 146.849 120.219 150.052 120.219C150.989 120.219 151.914 120.297 152.825 120.453C153.763 120.583 154.661 120.779 155.521 121.039V139.438C154.453 139.073 153.138 138.799 151.575 138.617C150.013 138.435 148.672 138.344 147.552 138.344C145.442 138.344 143.541 138.826 141.849 139.789C140.182 140.727 138.867 142.055 137.903 143.773C136.94 145.466 136.458 147.458 136.458 149.75V181H114.896ZM187.903 182.094C181.497 182.094 175.976 180.87 171.341 178.422C166.731 175.948 163.177 172.406 160.677 167.797C158.203 163.161 156.966 157.615 156.966 151.156C156.966 144.958 158.216 139.542 160.716 134.906C163.216 130.271 166.744 126.664 171.302 124.086C175.859 121.508 181.237 120.219 187.435 120.219C191.966 120.219 196.067 120.922 199.739 122.328C203.411 123.734 206.549 125.779 209.153 128.461C211.757 131.117 213.763 134.346 215.169 138.148C216.575 141.951 217.278 146.234 217.278 151V156H163.685V144.125H197.435C197.409 142.406 196.966 140.896 196.106 139.594C195.273 138.266 194.14 137.237 192.708 136.508C191.302 135.753 189.7 135.375 187.903 135.375C186.159 135.375 184.557 135.753 183.099 136.508C181.64 137.237 180.468 138.253 179.583 139.555C178.724 140.857 178.268 142.38 178.216 144.125V156.938C178.216 158.865 178.619 160.583 179.427 162.094C180.234 163.604 181.393 164.789 182.903 165.648C184.414 166.508 186.237 166.938 188.372 166.938C189.856 166.938 191.211 166.729 192.435 166.312C193.685 165.896 194.752 165.297 195.638 164.516C196.523 163.708 197.174 162.745 197.591 161.625H217.278C216.601 165.792 215 169.411 212.474 172.484C209.948 175.531 206.601 177.901 202.435 179.594C198.294 181.26 193.45 182.094 187.903 182.094ZM262.015 121V136.625H221.858V121H262.015ZM229.515 181V119.281C229.515 114.333 230.4 110.232 232.171 106.977C233.942 103.721 236.442 101.286 239.671 99.6719C242.9 98.0573 246.702 97.25 251.077 97.25C253.812 97.25 256.468 97.4583 259.046 97.875C261.65 98.2917 263.577 98.6562 264.827 98.9687L261.702 114.438C260.921 114.203 260.009 114.021 258.968 113.891C257.926 113.734 257.015 113.656 256.233 113.656C254.202 113.656 252.835 114.086 252.132 114.945C251.429 115.805 251.077 116.937 251.077 118.344V181H229.515ZM347.522 141C347.522 149.906 345.791 157.419 342.327 163.539C338.864 169.633 334.189 174.255 328.304 177.406C322.418 180.531 315.856 182.094 308.616 182.094C301.325 182.094 294.736 180.518 288.851 177.367C282.991 174.19 278.33 169.555 274.866 163.461C271.429 157.341 269.71 149.854 269.71 141C269.71 132.094 271.429 124.594 274.866 118.5C278.33 112.38 282.991 107.758 288.851 104.633C294.736 101.482 301.325 99.9062 308.616 99.9062C315.856 99.9062 322.418 101.482 328.304 104.633C334.189 107.758 338.864 112.38 342.327 118.5C345.791 124.594 347.522 132.094 347.522 141ZM325.179 141C325.179 136.208 324.541 132.172 323.265 128.891C322.015 125.583 320.153 123.083 317.679 121.391C315.231 119.672 312.21 118.812 308.616 118.812C305.022 118.812 301.989 119.672 299.515 121.391C297.067 123.083 295.205 125.583 293.929 128.891C292.679 132.172 292.054 136.208 292.054 141C292.054 145.792 292.679 149.841 293.929 153.148C295.205 156.43 297.067 158.93 299.515 160.648C301.989 162.341 305.022 163.187 308.616 163.187C312.21 163.187 315.231 162.341 317.679 160.648C320.153 158.93 322.015 156.43 323.265 153.148C324.541 149.841 325.179 145.792 325.179 141Z" fill="url(#paint0_linear_401_9)"/>
<rect x="305" y="99" width="7" height="20" fill="#1B1B1F"/>
<rect x="305" y="161" width="7" height="21" fill="#1B1B1F"/>
<path d="M86.9296 238L98.0536 212.8H105.074L116.234 238H108.818L100.106 216.292H102.914L94.2016 238H86.9296ZM93.0136 233.104L94.8496 227.848H107.162L108.998 233.104H93.0136ZM140.683 238.324C138.931 238.324 137.467 237.964 136.291 237.244C135.139 236.524 134.275 235.42 133.699 233.932C133.123 232.444 132.835 230.536 132.835 228.208C132.835 225.928 133.135 224.044 133.735 222.556C134.359 221.068 135.259 219.964 136.435 219.244C137.611 218.524 139.027 218.164 140.683 218.164C142.459 218.164 144.067 218.572 145.507 219.388C146.971 220.204 148.123 221.368 148.963 222.88C149.827 224.368 150.259 226.144 150.259 228.208C150.259 230.296 149.827 232.096 148.963 233.608C148.123 235.096 146.971 236.26 145.507 237.1C144.067 237.916 142.459 238.324 140.683 238.324ZM128.407 238V211.288H135.247V221.764L134.887 228.208L134.923 234.652V238H128.407ZM139.243 232.888C140.011 232.888 140.695 232.708 141.295 232.348C141.919 231.988 142.411 231.46 142.771 230.764C143.155 230.044 143.347 229.192 143.347 228.208C143.347 227.224 143.155 226.396 142.771 225.724C142.411 225.028 141.919 224.5 141.295 224.14C140.695 223.78 140.011 223.6 139.243 223.6C138.475 223.6 137.779 223.78 137.155 224.14C136.555 224.5 136.063 225.028 135.679 225.724C135.319 226.396 135.139 227.224 135.139 228.208C135.139 229.192 135.319 230.044 135.679 230.764C136.063 231.46 136.555 231.988 137.155 232.348C137.779 232.708 138.475 232.888 139.243 232.888ZM163.662 238.324C161.358 238.324 159.342 237.892 157.614 237.028C155.91 236.14 154.578 234.94 153.618 233.428C152.682 231.892 152.214 230.152 152.214 228.208C152.214 226.264 152.67 224.536 153.582 223.024C154.518 221.488 155.802 220.3 157.434 219.46C159.066 218.596 160.902 218.164 162.942 218.164C164.862 218.164 166.614 218.56 168.198 219.352C169.782 220.12 171.042 221.26 171.978 222.772C172.914 224.284 173.382 226.12 173.382 228.28C173.382 228.52 173.37 228.796 173.346 229.108C173.322 229.42 173.298 229.708 173.274 229.972H157.83V226.372H169.638L167.046 227.38C167.07 226.492 166.902 225.724 166.542 225.076C166.206 224.428 165.726 223.924 165.102 223.564C164.502 223.204 163.794 223.024 162.978 223.024C162.162 223.024 161.442 223.204 160.818 223.564C160.218 223.924 159.75 224.44 159.414 225.112C159.078 225.76 158.91 226.528 158.91 227.416V228.46C158.91 229.42 159.102 230.248 159.486 230.944C159.894 231.64 160.47 232.18 161.214 232.564C161.958 232.924 162.846 233.104 163.878 233.104C164.838 233.104 165.654 232.972 166.326 232.708C167.022 232.42 167.706 231.988 168.378 231.412L171.978 235.156C171.042 236.188 169.89 236.98 168.522 237.532C167.154 238.06 165.534 238.324 163.662 238.324ZM185.248 238.324C182.752 238.324 180.808 237.712 179.416 236.488C178.024 235.24 177.328 233.368 177.328 230.872V214.132H184.168V230.8C184.168 231.496 184.36 232.048 184.744 232.456C185.128 232.84 185.62 233.032 186.22 233.032C187.036 233.032 187.732 232.828 188.308 232.42L190 237.208C189.424 237.592 188.716 237.868 187.876 238.036C187.036 238.228 186.16 238.324 185.248 238.324ZM174.484 224.32V219.208H188.632V224.32H174.484ZM200.963 238.324C198.467 238.324 196.523 237.712 195.131 236.488C193.739 235.24 193.043 233.368 193.043 230.872V214.132H199.883V230.8C199.883 231.496 200.075 232.048 200.459 232.456C200.843 232.84 201.335 233.032 201.935 233.032C202.751 233.032 203.447 232.828 204.023 232.42L205.715 237.208C205.139 237.592 204.431 237.868 203.591 238.036C202.751 238.228 201.875 238.324 200.963 238.324ZM190.199 224.32V219.208H204.347V224.32H190.199ZM218.014 238.324C215.71 238.324 213.694 237.892 211.966 237.028C210.262 236.14 208.93 234.94 207.97 233.428C207.034 231.892 206.566 230.152 206.566 228.208C206.566 226.264 207.022 224.536 207.934 223.024C208.87 221.488 210.154 220.3 211.786 219.46C213.418 218.596 215.254 218.164 217.294 218.164C219.214 218.164 220.966 218.56 222.55 219.352C224.134 220.12 225.394 221.26 226.33 222.772C227.266 224.284 227.734 226.12 227.734 228.28C227.734 228.52 227.722 228.796 227.698 229.108C227.674 229.42 227.65 229.708 227.626 229.972H212.182V226.372H223.99L221.398 227.38C221.422 226.492 221.254 225.724 220.894 225.076C220.558 224.428 220.078 223.924 219.454 223.564C218.854 223.204 218.146 223.024 217.33 223.024C216.514 223.024 215.794 223.204 215.17 223.564C214.57 223.924 214.102 224.44 213.766 225.112C213.43 225.76 213.262 226.528 213.262 227.416V228.46C213.262 229.42 213.454 230.248 213.838 230.944C214.246 231.64 214.822 232.18 215.566 232.564C216.31 232.924 217.198 233.104 218.23 233.104C219.19 233.104 220.006 232.972 220.678 232.708C221.374 232.42 222.058 231.988 222.73 231.412L226.33 235.156C225.394 236.188 224.242 236.98 222.874 237.532C221.506 238.06 219.886 238.324 218.014 238.324ZM230.887 238V218.488H237.403V224.176L236.431 222.556C237.007 221.092 237.943 220 239.239 219.28C240.535 218.536 242.107 218.164 243.955 218.164V224.32C243.643 224.272 243.367 224.248 243.127 224.248C242.911 224.224 242.671 224.212 242.407 224.212C241.015 224.212 239.887 224.596 239.023 225.364C238.159 226.108 237.727 227.332 237.727 229.036V238H230.887ZM257.325 238V218.488H263.841V224.176L262.869 222.556C263.445 221.092 264.381 220 265.677 219.28C266.973 218.536 268.545 218.164 270.393 218.164V224.32C270.081 224.272 269.805 224.248 269.565 224.248C269.349 224.224 269.109 224.212 268.845 224.212C267.453 224.212 266.325 224.596 265.461 225.364C264.597 226.108 264.165 227.332 264.165 229.036V238H257.325ZM283.264 238.324C280.96 238.324 278.944 237.892 277.216 237.028C275.512 236.14 274.18 234.94 273.22 233.428C272.284 231.892 271.816 230.152 271.816 228.208C271.816 226.264 272.272 224.536 273.184 223.024C274.12 221.488 275.404 220.3 277.036 219.46C278.668 218.596 280.504 218.164 282.544 218.164C284.464 218.164 286.216 218.56 287.8 219.352C289.384 220.12 290.644 221.26 291.58 222.772C292.516 224.284 292.984 226.12 292.984 228.28C292.984 228.52 292.972 228.796 292.948 229.108C292.924 229.42 292.9 229.708 292.876 229.972H277.432V226.372H289.24L286.648 227.38C286.672 226.492 286.504 225.724 286.144 225.076C285.808 224.428 285.328 223.924 284.704 223.564C284.104 223.204 283.396 223.024 282.58 223.024C281.764 223.024 281.044 223.204 280.42 223.564C279.82 223.924 279.352 224.44 279.016 225.112C278.68 225.76 278.512 226.528 278.512 227.416V228.46C278.512 229.42 278.704 230.248 279.088 230.944C279.496 231.64 280.072 232.18 280.816 232.564C281.56 232.924 282.448 233.104 283.48 233.104C284.44 233.104 285.256 232.972 285.928 232.708C286.624 232.42 287.308 231.988 287.98 231.412L291.58 235.156C290.644 236.188 289.492 236.98 288.124 237.532C286.756 238.06 285.136 238.324 283.264 238.324ZM296.929 238V218.704C296.929 216.352 297.625 214.48 299.017 213.088C300.433 211.672 302.449 210.964 305.065 210.964C305.905 210.964 306.733 211.048 307.549 211.216C308.365 211.384 309.049 211.636 309.601 211.972L307.909 216.796C307.621 216.628 307.297 216.496 306.937 216.4C306.577 216.28 306.217 216.22 305.857 216.22C305.137 216.22 304.573 216.436 304.165 216.868C303.781 217.276 303.589 217.912 303.589 218.776V220.18L303.769 223.024V238H296.929ZM294.085 224.32V219.208H308.233V224.32H294.085Z" fill="white"/>
</g>
<defs>
<filter id="filter0_d_401_9" x="-40.2588" y="8.24999" width="475.781" height="264.844" filterUnits="userSpaceOnUse" color-interpolation-filters="sRGB">
<feFlood flood-opacity="0" result="BackgroundImageFix"/>
<feColorMatrix in="SourceAlpha" type="matrix" values="0 0 0 0 0 0 0 0 0 0 0 0 0 0 0 0 0 0 127 0" result="hardAlpha"/>
<feOffset dy="5"/>
<feGaussianBlur stdDeviation="45"/>
<feComposite in2="hardAlpha" operator="out"/>
<feColorMatrix type="matrix" values="0 0 0 0 0.254902 0 0 0 0 0.721569 0 0 0 0 0.513726 0 0 0 1 0"/>
<feBlend mode="normal" in2="BackgroundImageFix" result="effect1_dropShadow_401_9"/>
<feBlend mode="normal" in="SourceGraphic" in2="effect1_dropShadow_401_9" result="shape"/>
</filter>
<linearGradient id="paint0_linear_401_9" x1="199.5" y1="69" x2="199.5" y2="213" gradientUnits="userSpaceOnUse">
<stop offset="0.493056" stop-color="#42D392"/>
<stop offset="1" stop-color="#647EFF"/>
</linearGradient>
<clipPath id="clip0_401_9">
<rect width="400" height="300" fill="white"/>
</clipPath>
</defs>
</svg>
