<svg width="400" height="300" viewBox="0 0 400 300" fill="none" xmlns="http://www.w3.org/2000/svg">
<g filter="url(#filter0_d_401_9)">
<path d="M49.7412 177V97H71.46V159.5H103.804V177H49.7412ZM112.896 177V117H133.833V128.406H134.458C135.552 124.187 137.284 121.102 139.653 119.148C142.049 117.195 144.849 116.219 148.052 116.219C148.989 116.219 149.914 116.297 150.825 116.453C151.763 116.583 152.661 116.779 153.521 117.039V135.438C152.453 135.073 151.138 134.799 149.575 134.617C148.013 134.435 146.672 134.344 145.552 134.344C143.442 134.344 141.541 134.826 139.849 135.789C138.182 136.727 136.867 138.055 135.903 139.773C134.94 141.466 134.458 143.458 134.458 145.75V177H112.896ZM185.903 178.094C179.497 178.094 173.976 176.87 169.341 174.422C164.731 171.948 161.177 168.406 158.677 163.797C156.203 159.161 154.966 153.615 154.966 147.156C154.966 140.958 156.216 135.542 158.716 130.906C161.216 126.271 164.744 122.664 169.302 120.086C173.859 117.508 179.237 116.219 185.435 116.219C189.966 116.219 194.067 116.922 197.739 118.328C201.411 119.734 204.549 121.779 207.153 124.461C209.757 127.117 211.763 130.346 213.169 134.148C214.575 137.951 215.278 142.234 215.278 147V152H161.685V140.125H195.435C195.409 138.406 194.966 136.896 194.106 135.594C193.273 134.266 192.14 133.237 190.708 132.508C189.302 131.753 187.7 131.375 185.903 131.375C184.159 131.375 182.557 131.753 181.099 132.508C179.64 133.237 178.468 134.253 177.583 135.555C176.724 136.857 176.268 138.38 176.216 140.125V152.938C176.216 154.865 176.619 156.583 177.427 158.094C178.234 159.604 179.393 160.789 180.903 161.648C182.414 162.508 184.237 162.938 186.372 162.938C187.856 162.938 189.211 162.729 190.435 162.312C191.685 161.896 192.752 161.297 193.638 160.516C194.523 159.708 195.174 158.745 195.591 157.625H215.278C214.601 161.792 213 165.411 210.474 168.484C207.948 171.531 204.601 173.901 200.435 175.594C196.294 177.26 191.45 178.094 185.903 178.094ZM260.015 117V132.625H219.858V117H260.015ZM227.515 177V115.281C227.515 110.333 228.4 106.232 230.171 102.977C231.942 99.7214 234.442 97.2865 237.671 95.6719C240.9 94.0573 244.702 93.25 249.077 93.25C251.812 93.25 254.468 93.4583 257.046 93.875C259.65 94.2917 261.577 94.6562 262.827 94.9687L259.702 110.438C258.921 110.203 258.009 110.021 256.968 109.891C255.926 109.734 255.015 109.656 254.233 109.656C252.202 109.656 250.835 110.086 250.132 110.945C249.429 111.805 249.077 112.937 249.077 114.344V177H227.515ZM345.522 137C345.522 145.906 343.791 153.419 340.327 159.539C336.864 165.633 332.189 170.255 326.304 173.406C320.418 176.531 313.856 178.094 306.616 178.094C299.325 178.094 292.736 176.518 286.851 173.367C280.991 170.19 276.33 165.555 272.866 159.461C269.429 153.341 267.71 145.854 267.71 137C267.71 128.094 269.429 120.594 272.866 114.5C276.33 108.38 280.991 103.758 286.851 100.633C292.736 97.4818 299.325 95.9062 306.616 95.9062C313.856 95.9062 320.418 97.4818 326.304 100.633C332.189 103.758 336.864 108.38 340.327 114.5C343.791 120.594 345.522 128.094 345.522 137ZM323.179 137C323.179 132.208 322.541 128.172 321.265 124.891C320.015 121.583 318.153 119.083 315.679 117.391C313.231 115.672 310.21 114.812 306.616 114.812C303.022 114.812 299.989 115.672 297.515 117.391C295.067 119.083 293.205 121.583 291.929 124.891C290.679 128.172 290.054 132.208 290.054 137C290.054 141.792 290.679 145.841 291.929 149.148C293.205 152.43 295.067 154.93 297.515 156.648C299.989 158.341 303.022 159.187 306.616 159.187C310.21 159.187 313.231 158.341 315.679 156.648C318.153 154.93 320.015 152.43 321.265 149.148C322.541 145.841 323.179 141.792 323.179 137Z" fill="#1B1B1F"/>
</g>
<path d="M51.7412 181V101H73.46V163.5H105.804V181H51.7412ZM114.896 181V121H135.833V132.406H136.458C137.552 128.187 139.284 125.102 141.653 123.148C144.049 121.195 146.849 120.219 150.052 120.219C150.989 120.219 151.914 120.297 152.825 120.453C153.763 120.583 154.661 120.779 155.521 121.039V139.438C154.453 139.073 153.138 138.799 151.575 138.617C150.013 138.435 148.672 138.344 147.552 138.344C145.442 138.344 143.541 138.826 141.849 139.789C140.182 140.727 138.867 142.055 137.903 143.773C136.94 145.466 136.458 147.458 136.458 149.75V181H114.896ZM187.903 182.094C181.497 182.094 175.976 180.87 171.341 178.422C166.731 175.948 163.177 172.406 160.677 167.797C158.203 163.161 156.966 157.615 156.966 151.156C156.966 144.958 158.216 139.542 160.716 134.906C163.216 130.271 166.744 126.664 171.302 124.086C175.859 121.508 181.237 120.219 187.435 120.219C191.966 120.219 196.067 120.922 199.739 122.328C203.411 123.734 206.549 125.779 209.153 128.461C211.757 131.117 213.763 134.346 215.169 138.148C216.575 141.951 217.278 146.234 217.278 151V156H163.685V144.125H197.435C197.409 142.406 196.966 140.896 196.106 139.594C195.273 138.266 194.14 137.237 192.708 136.508C191.302 135.753 189.7 135.375 187.903 135.375C186.159 135.375 184.557 135.753 183.099 136.508C181.64 137.237 180.468 138.253 179.583 139.555C178.724 140.857 178.268 142.38 178.216 144.125V156.938C178.216 158.865 178.619 160.583 179.427 162.094C180.234 163.604 181.393 164.789 182.903 165.648C184.414 166.508 186.237 166.938 188.372 166.938C189.856 166.938 191.211 166.729 192.435 166.312C193.685 165.896 194.752 165.297 195.638 164.516C196.523 163.708 197.174 162.745 197.591 161.625H217.278C216.601 165.792 215 169.411 212.474 172.484C209.948 175.531 206.601 177.901 202.435 179.594C198.294 181.26 193.45 182.094 187.903 182.094ZM262.015 121V136.625H221.858V121H262.015ZM229.515 181V119.281C229.515 114.333 230.4 110.232 232.171 106.977C233.942 103.721 236.442 101.286 239.671 99.6719C242.9 98.0573 246.702 97.25 251.077 97.25C253.812 97.25 256.468 97.4583 259.046 97.875C261.65 98.2917 263.577 98.6562 264.827 98.9687L261.702 114.438C260.921 114.203 260.009 114.021 258.968 113.891C257.926 113.734 257.015 113.656 256.233 113.656C254.202 113.656 252.835 114.086 252.132 114.945C251.429 115.805 251.077 116.937 251.077 118.344V181H229.515ZM347.522 141C347.522 149.906 345.791 157.419 342.327 163.539C338.864 169.633 334.189 174.255 328.304 177.406C322.418 180.531 315.856 182.094 308.616 182.094C301.325 182.094 294.736 180.518 288.851 177.367C282.991 174.19 278.33 169.555 274.866 163.461C271.429 157.341 269.71 149.854 269.71 141C269.71 132.094 271.429 124.594 274.866 118.5C278.33 112.38 282.991 107.758 288.851 104.633C294.736 101.482 301.325 99.9062 308.616 99.9062C315.856 99.9062 322.418 101.482 328.304 104.633C334.189 107.758 338.864 112.38 342.327 118.5C345.791 124.594 347.522 132.094 347.522 141ZM325.179 141C325.179 136.208 324.541 132.172 323.265 128.891C322.015 125.583 320.153 123.083 317.679 121.391C315.231 119.672 312.21 118.812 308.616 118.812C305.022 118.812 301.989 119.672 299.515 121.391C297.067 123.083 295.205 125.583 293.929 128.891C292.679 132.172 292.054 136.208 292.054 141C292.054 145.792 292.679 149.841 293.929 153.148C295.205 156.43 297.067 158.93 299.515 160.648C301.989 162.341 305.022 163.187 308.616 163.187C312.21 163.187 315.231 162.341 317.679 160.648C320.153 158.93 322.015 156.43 323.265 153.148C324.541 149.841 325.179 145.792 325.179 141Z" fill="url(#paint0_linear_401_9)"/>
<rect x="305" y="99" width="7" height="20" fill="#1B1B1F"/>
<rect x="305" y="161" width="7" height="21" fill="#1B1B1F"/>
<mask id="path-5-outside-1_401_9" maskUnits="userSpaceOnUse" x="85" y="209" width="226" height="31" fill="black">
<rect fill="white" x="85" y="209" width="226" height="31"/>
<path d="M86.9296 238L98.0536 212.8H105.074L116.234 238H108.818L100.106 216.292H102.914L94.2016 238H86.9296ZM93.0136 233.104L94.8496 227.848H107.162L108.998 233.104H93.0136ZM140.683 238.324C138.931 238.324 137.467 237.964 136.291 237.244C135.139 236.524 134.275 235.42 133.699 233.932C133.123 232.444 132.835 230.536 132.835 228.208C132.835 225.928 133.135 224.044 133.735 222.556C134.359 221.068 135.259 219.964 136.435 219.244C137.611 218.524 139.027 218.164 140.683 218.164C142.459 218.164 144.067 218.572 145.507 219.388C146.971 220.204 148.123 221.368 148.963 222.88C149.827 224.368 150.259 226.144 150.259 228.208C150.259 230.296 149.827 232.096 148.963 233.608C148.123 235.096 146.971 236.26 145.507 237.1C144.067 237.916 142.459 238.324 140.683 238.324ZM128.407 238V211.288H135.247V221.764L134.887 228.208L134.923 234.652V238H128.407ZM139.243 232.888C140.011 232.888 140.695 232.708 141.295 232.348C141.919 231.988 142.411 231.46 142.771 230.764C143.155 230.044 143.347 229.192 143.347 228.208C143.347 227.224 143.155 226.396 142.771 225.724C142.411 225.028 141.919 224.5 141.295 224.14C140.695 223.78 140.011 223.6 139.243 223.6C138.475 223.6 137.779 223.78 137.155 224.14C136.555 224.5 136.063 225.028 135.679 225.724C135.319 226.396 135.139 227.224 135.139 228.208C135.139 229.192 135.319 230.044 135.679 230.764C136.063 231.46 136.555 231.988 137.155 232.348C137.779 232.708 138.475 232.888 139.243 232.888ZM163.662 238.324C161.358 238.324 159.342 237.892 157.614 237.028C155.91 236.14 154.578 234.94 153.618 233.428C152.682 231.892 152.214 230.152 152.214 228.208C152.214 226.264 152.67 224.536 153.582 223.024C154.518 221.488 155.802 220.3 157.434 219.46C159.066 218.596 160.902 218.164 162.942 218.164C164.862 218.164 166.614 218.56 168.198 219.352C169.782 220.12 171.042 221.26 171.978 222.772C172.914 224.284 173.382 226.12 173.382 228.28C173.382 228.52 173.37 228.796 173.346 229.108C173.322 229.42 173.298 229.708 173.274 229.972H157.83V226.372H169.638L167.046 227.38C167.07 226.492 166.902 225.724 166.542 225.076C166.206 224.428 165.726 223.924 165.102 223.564C164.502 223.204 163.794 223.024 162.978 223.024C162.162 223.024 161.442 223.204 160.818 223.564C160.218 223.924 159.75 224.44 159.414 225.112C159.078 225.76 158.91 226.528 158.91 227.416V228.46C158.91 229.42 159.102 230.248 159.486 230.944C159.894 231.64 160.47 232.18 161.214 232.564C161.958 232.924 162.846 233.104 163.878 233.104C164.838 233.104 165.654 232.972 166.326 232.708C167.022 232.42 167.706 231.988 168.378 231.412L171.978 235.156C171.042 236.188 169.89 236.98 168.522 237.532C167.154 238.06 165.534 238.324 163.662 238.324ZM185.248 238.324C182.752 238.324 180.808 237.712 179.416 236.488C178.024 235.24 177.328 233.368 177.328 230.872V214.132H184.168V230.8C184.168 231.496 184.36 232.048 184.744 232.456C185.128 232.84 185.62 233.032 186.22 233.032C187.036 233.032 187.732 232.828 188.308 232.42L190 237.208C189.424 237.592 188.716 237.868 187.876 238.036C187.036 238.228 186.16 238.324 185.248 238.324ZM174.484 224.32V219.208H188.632V224.32H174.484ZM200.963 238.324C198.467 238.324 196.523 237.712 195.131 236.488C193.739 235.24 193.043 233.368 193.043 230.872V214.132H199.883V230.8C199.883 231.496 200.075 232.048 200.459 232.456C200.843 232.84 201.335 233.032 201.935 233.032C202.751 233.032 203.447 232.828 204.023 232.42L205.715 237.208C205.139 237.592 204.431 237.868 203.591 238.036C202.751 238.228 201.875 238.324 200.963 238.324ZM190.199 224.32V219.208H204.347V224.32H190.199ZM218.014 238.324C215.71 238.324 213.694 237.892 211.966 237.028C210.262 236.14 208.93 234.94 207.97 233.428C207.034 231.892 206.566 230.152 206.566 228.208C206.566 226.264 207.022 224.536 207.934 223.024C208.87 221.488 210.154 220.3 211.786 219.46C213.418 218.596 215.254 218.164 217.294 218.164C219.214 218.164 220.966 218.56 222.55 219.352C224.134 220.12 225.394 221.26 226.33 222.772C227.266 224.284 227.734 226.12 227.734 228.28C227.734 228.52 227.722 228.796 227.698 229.108C227.674 229.42 227.65 229.708 227.626 229.972H212.182V226.372H223.99L221.398 227.38C221.422 226.492 221.254 225.724 220.894 225.076C220.558 224.428 220.078 223.924 219.454 223.564C218.854 223.204 218.146 223.024 217.33 223.024C216.514 223.024 215.794 223.204 215.17 223.564C214.57 223.924 214.102 224.44 213.766 225.112C213.43 225.76 213.262 226.528 213.262 227.416V228.46C213.262 229.42 213.454 230.248 213.838 230.944C214.246 231.64 214.822 232.18 215.566 232.564C216.31 232.924 217.198 233.104 218.23 233.104C219.19 233.104 220.006 232.972 220.678 232.708C221.374 232.42 222.058 231.988 222.73 231.412L226.33 235.156C225.394 236.188 224.242 236.98 222.874 237.532C221.506 238.06 219.886 238.324 218.014 238.324ZM230.887 238V218.488H237.403V224.176L236.431 222.556C237.007 221.092 237.943 220 239.239 219.28C240.535 218.536 242.107 218.164 243.955 218.164V224.32C243.643 224.272 243.367 224.248 243.127 224.248C242.911 224.224 242.671 224.212 242.407 224.212C241.015 224.212 239.887 224.596 239.023 225.364C238.159 226.108 237.727 227.332 237.727 229.036V238H230.887ZM257.325 238V218.488H263.841V224.176L262.869 222.556C263.445 221.092 264.381 220 265.677 219.28C266.973 218.536 268.545 218.164 270.393 218.164V224.32C270.081 224.272 269.805 224.248 269.565 224.248C269.349 224.224 269.109 224.212 268.845 224.212C267.453 224.212 266.325 224.596 265.461 225.364C264.597 226.108 264.165 227.332 264.165 229.036V238H257.325ZM283.264 238.324C280.96 238.324 278.944 237.892 277.216 237.028C275.512 236.14 274.18 234.94 273.22 233.428C272.284 231.892 271.816 230.152 271.816 228.208C271.816 226.264 272.272 224.536 273.184 223.024C274.12 221.488 275.404 220.3 277.036 219.46C278.668 218.596 280.504 218.164 282.544 218.164C284.464 218.164 286.216 218.56 287.8 219.352C289.384 220.12 290.644 221.26 291.58 222.772C292.516 224.284 292.984 226.12 292.984 228.28C292.984 228.52 292.972 228.796 292.948 229.108C292.924 229.42 292.9 229.708 292.876 229.972H277.432V226.372H289.24L286.648 227.38C286.672 226.492 286.504 225.724 286.144 225.076C285.808 224.428 285.328 223.924 284.704 223.564C284.104 223.204 283.396 223.024 282.58 223.024C281.764 223.024 281.044 223.204 280.42 223.564C279.82 223.924 279.352 224.44 279.016 225.112C278.68 225.76 278.512 226.528 278.512 227.416V228.46C278.512 229.42 278.704 230.248 279.088 230.944C279.496 231.64 280.072 232.18 280.816 232.564C281.56 232.924 282.448 233.104 283.48 233.104C284.44 233.104 285.256 232.972 285.928 232.708C286.624 232.42 287.308 231.988 287.98 231.412L291.58 235.156C290.644 236.188 289.492 236.98 288.124 237.532C286.756 238.06 285.136 238.324 283.264 238.324ZM296.929 238V218.704C296.929 216.352 297.625 214.48 299.017 213.088C300.433 211.672 302.449 210.964 305.065 210.964C305.905 210.964 306.733 211.048 307.549 211.216C308.365 211.384 309.049 211.636 309.601 211.972L307.909 216.796C307.621 216.628 307.297 216.496 306.937 216.4C306.577 216.28 306.217 216.22 305.857 216.22C305.137 216.22 304.573 216.436 304.165 216.868C303.781 217.276 303.589 217.912 303.589 218.776V220.18L303.769 223.024V238H296.929ZM294.085 224.32V219.208H308.233V224.32H294.085Z"/>
</mask>
<path d="M86.9296 238L98.0536 212.8H105.074L116.234 238H108.818L100.106 216.292H102.914L94.2016 238H86.9296ZM93.0136 233.104L94.8496 227.848H107.162L108.998 233.104H93.0136ZM140.683 238.324C138.931 238.324 137.467 237.964 136.291 237.244C135.139 236.524 134.275 235.42 133.699 233.932C133.123 232.444 132.835 230.536 132.835 228.208C132.835 225.928 133.135 224.044 133.735 222.556C134.359 221.068 135.259 219.964 136.435 219.244C137.611 218.524 139.027 218.164 140.683 218.164C142.459 218.164 144.067 218.572 145.507 219.388C146.971 220.204 148.123 221.368 148.963 222.88C149.827 224.368 150.259 226.144 150.259 228.208C150.259 230.296 149.827 232.096 148.963 233.608C148.123 235.096 146.971 236.26 145.507 237.1C144.067 237.916 142.459 238.324 140.683 238.324ZM128.407 238V211.288H135.247V221.764L134.887 228.208L134.923 234.652V238H128.407ZM139.243 232.888C140.011 232.888 140.695 232.708 141.295 232.348C141.919 231.988 142.411 231.46 142.771 230.764C143.155 230.044 143.347 229.192 143.347 228.208C143.347 227.224 143.155 226.396 142.771 225.724C142.411 225.028 141.919 224.5 141.295 224.14C140.695 223.78 140.011 223.6 139.243 223.6C138.475 223.6 137.779 223.78 137.155 224.14C136.555 224.5 136.063 225.028 135.679 225.724C135.319 226.396 135.139 227.224 135.139 228.208C135.139 229.192 135.319 230.044 135.679 230.764C136.063 231.46 136.555 231.988 137.155 232.348C137.779 232.708 138.475 232.888 139.243 232.888ZM163.662 238.324C161.358 238.324 159.342 237.892 157.614 237.028C155.91 236.14 154.578 234.94 153.618 233.428C152.682 231.892 152.214 230.152 152.214 228.208C152.214 226.264 152.67 224.536 153.582 223.024C154.518 221.488 155.802 220.3 157.434 219.46C159.066 218.596 160.902 218.164 162.942 218.164C164.862 218.164 166.614 218.56 168.198 219.352C169.782 220.12 171.042 221.26 171.978 222.772C172.914 224.284 173.382 226.12 173.382 228.28C173.382 228.52 173.37 228.796 173.346 229.108C173.322 229.42 173.298 229.708 173.274 229.972H157.83V226.372H169.638L167.046 227.38C167.07 226.492 166.902 225.724 166.542 225.076C166.206 224.428 165.726 223.924 165.102 223.564C164.502 223.204 163.794 223.024 162.978 223.024C162.162 223.024 161.442 223.204 160.818 223.564C160.218 223.924 159.75 224.44 159.414 225.112C159.078 225.76 158.91 226.528 158.91 227.416V228.46C158.91 229.42 159.102 230.248 159.486 230.944C159.894 231.64 160.47 232.18 161.214 232.564C161.958 232.924 162.846 233.104 163.878 233.104C164.838 233.104 165.654 232.972 166.326 232.708C167.022 232.42 167.706 231.988 168.378 231.412L171.978 235.156C171.042 236.188 169.89 236.98 168.522 237.532C167.154 238.06 165.534 238.324 163.662 238.324ZM185.248 238.324C182.752 238.324 180.808 237.712 179.416 236.488C178.024 235.24 177.328 233.368 177.328 230.872V214.132H184.168V230.8C184.168 231.496 184.36 232.048 184.744 232.456C185.128 232.84 185.62 233.032 186.22 233.032C187.036 233.032 187.732 232.828 188.308 232.42L190 237.208C189.424 237.592 188.716 237.868 187.876 238.036C187.036 238.228 186.16 238.324 185.248 238.324ZM174.484 224.32V219.208H188.632V224.32H174.484ZM200.963 238.324C198.467 238.324 196.523 237.712 195.131 236.488C193.739 235.24 193.043 233.368 193.043 230.872V214.132H199.883V230.8C199.883 231.496 200.075 232.048 200.459 232.456C200.843 232.84 201.335 233.032 201.935 233.032C202.751 233.032 203.447 232.828 204.023 232.42L205.715 237.208C205.139 237.592 204.431 237.868 203.591 238.036C202.751 238.228 201.875 238.324 200.963 238.324ZM190.199 224.32V219.208H204.347V224.32H190.199ZM218.014 238.324C215.71 238.324 213.694 237.892 211.966 237.028C210.262 236.14 208.93 234.94 207.97 233.428C207.034 231.892 206.566 230.152 206.566 228.208C206.566 226.264 207.022 224.536 207.934 223.024C208.87 221.488 210.154 220.3 211.786 219.46C213.418 218.596 215.254 218.164 217.294 218.164C219.214 218.164 220.966 218.56 222.55 219.352C224.134 220.12 225.394 221.26 226.33 222.772C227.266 224.284 227.734 226.12 227.734 228.28C227.734 228.52 227.722 228.796 227.698 229.108C227.674 229.42 227.65 229.708 227.626 229.972H212.182V226.372H223.99L221.398 227.38C221.422 226.492 221.254 225.724 220.894 225.076C220.558 224.428 220.078 223.924 219.454 223.564C218.854 223.204 218.146 223.024 217.33 223.024C216.514 223.024 215.794 223.204 215.17 223.564C214.57 223.924 214.102 224.44 213.766 225.112C213.43 225.76 213.262 226.528 213.262 227.416V228.46C213.262 229.42 213.454 230.248 213.838 230.944C214.246 231.64 214.822 232.18 215.566 232.564C216.31 232.924 217.198 233.104 218.23 233.104C219.19 233.104 220.006 232.972 220.678 232.708C221.374 232.42 222.058 231.988 222.73 231.412L226.33 235.156C225.394 236.188 224.242 236.98 222.874 237.532C221.506 238.06 219.886 238.324 218.014 238.324ZM230.887 238V218.488H237.403V224.176L236.431 222.556C237.007 221.092 237.943 220 239.239 219.28C240.535 218.536 242.107 218.164 243.955 218.164V224.32C243.643 224.272 243.367 224.248 243.127 224.248C242.911 224.224 242.671 224.212 242.407 224.212C241.015 224.212 239.887 224.596 239.023 225.364C238.159 226.108 237.727 227.332 237.727 229.036V238H230.887ZM257.325 238V218.488H263.841V224.176L262.869 222.556C263.445 221.092 264.381 220 265.677 219.28C266.973 218.536 268.545 218.164 270.393 218.164V224.32C270.081 224.272 269.805 224.248 269.565 224.248C269.349 224.224 269.109 224.212 268.845 224.212C267.453 224.212 266.325 224.596 265.461 225.364C264.597 226.108 264.165 227.332 264.165 229.036V238H257.325ZM283.264 238.324C280.96 238.324 278.944 237.892 277.216 237.028C275.512 236.14 274.18 234.94 273.22 233.428C272.284 231.892 271.816 230.152 271.816 228.208C271.816 226.264 272.272 224.536 273.184 223.024C274.12 221.488 275.404 220.3 277.036 219.46C278.668 218.596 280.504 218.164 282.544 218.164C284.464 218.164 286.216 218.56 287.8 219.352C289.384 220.12 290.644 221.26 291.58 222.772C292.516 224.284 292.984 226.12 292.984 228.28C292.984 228.52 292.972 228.796 292.948 229.108C292.924 229.42 292.9 229.708 292.876 229.972H277.432V226.372H289.24L286.648 227.38C286.672 226.492 286.504 225.724 286.144 225.076C285.808 224.428 285.328 223.924 284.704 223.564C284.104 223.204 283.396 223.024 282.58 223.024C281.764 223.024 281.044 223.204 280.42 223.564C279.82 223.924 279.352 224.44 279.016 225.112C278.68 225.76 278.512 226.528 278.512 227.416V228.46C278.512 229.42 278.704 230.248 279.088 230.944C279.496 231.64 280.072 232.18 280.816 232.564C281.56 232.924 282.448 233.104 283.48 233.104C284.44 233.104 285.256 232.972 285.928 232.708C286.624 232.42 287.308 231.988 287.98 231.412L291.58 235.156C290.644 236.188 289.492 236.98 288.124 237.532C286.756 238.06 285.136 238.324 283.264 238.324ZM296.929 238V218.704C296.929 216.352 297.625 214.48 299.017 213.088C300.433 211.672 302.449 210.964 305.065 210.964C305.905 210.964 306.733 211.048 307.549 211.216C308.365 211.384 309.049 211.636 309.601 211.972L307.909 216.796C307.621 216.628 307.297 216.496 306.937 216.4C306.577 216.28 306.217 216.22 305.857 216.22C305.137 216.22 304.573 216.436 304.165 216.868C303.781 217.276 303.589 217.912 303.589 218.776V220.18L303.769 223.024V238H296.929ZM294.085 224.32V219.208H308.233V224.32H294.085Z" fill="white"/>
<path d="M86.9296 238L86.0148 237.596L85.3951 239H86.9296V238ZM98.0536 212.8V211.8H97.4019L97.1388 212.396L98.0536 212.8ZM105.074 212.8L105.988 212.395L105.724 211.8H105.074V212.8ZM116.234 238V239H117.77L117.148 237.595L116.234 238ZM108.818 238L107.89 238.372L108.141 239H108.818V238ZM100.106 216.292V215.292H98.6267L99.1775 216.664L100.106 216.292ZM102.914 216.292L103.842 216.664L104.392 215.292H102.914V216.292ZM94.2016 238V239H94.8778L95.1296 238.372L94.2016 238ZM93.0136 233.104L92.0695 232.774L91.605 234.104H93.0136V233.104ZM94.8496 227.848V226.848H94.1397L93.9055 227.518L94.8496 227.848ZM107.162 227.848L108.106 227.518L107.872 226.848H107.162V227.848ZM108.998 233.104V234.104H110.406L109.942 232.774L108.998 233.104ZM87.8444 238.404L98.9684 213.204L97.1388 212.396L86.0148 237.596L87.8444 238.404ZM98.0536 213.8H105.074V211.8H98.0536V213.8ZM104.159 213.205L115.319 238.405L117.148 237.595L105.988 212.395L104.159 213.205ZM116.234 237H108.818V239H116.234V237ZM109.746 237.628L101.034 215.92L99.1775 216.664L107.89 238.372L109.746 237.628ZM100.106 217.292H102.914V215.292H100.106V217.292ZM101.986 215.92L93.2735 237.628L95.1296 238.372L103.842 216.664L101.986 215.92ZM94.2016 237H86.9296V239H94.2016V237ZM93.9577 233.434L95.7937 228.178L93.9055 227.518L92.0695 232.774L93.9577 233.434ZM94.8496 228.848H107.162V226.848H94.8496V228.848ZM106.218 228.178L108.054 233.434L109.942 232.774L108.106 227.518L106.218 228.178ZM108.998 232.104H93.0136V234.104H108.998V232.104ZM136.291 237.244L135.761 238.092L135.769 238.097L136.291 237.244ZM133.699 233.932L132.766 234.293L132.766 234.293L133.699 233.932ZM133.735 222.556L132.813 222.169L132.807 222.182L133.735 222.556ZM136.435 219.244L135.913 218.391L135.913 218.391L136.435 219.244ZM145.507 219.388L145.014 220.258L145.02 220.261L145.507 219.388ZM148.963 222.88L148.089 223.366L148.093 223.374L148.098 223.382L148.963 222.88ZM148.963 233.608L148.095 233.112L148.092 233.116L148.963 233.608ZM145.507 237.1L146 237.97L146.005 237.967L145.507 237.1ZM128.407 238H127.407V239H128.407V238ZM128.407 211.288V210.288H127.407V211.288H128.407ZM135.247 211.288H136.247V210.288H135.247V211.288ZM135.247 221.764L136.245 221.82L136.247 221.792V221.764H135.247ZM134.887 228.208L133.888 228.152L133.887 228.183L133.887 228.214L134.887 228.208ZM134.923 234.652H135.923L135.923 234.646L134.923 234.652ZM134.923 238V239H135.923V238H134.923ZM141.295 232.348L140.795 231.482L140.788 231.486L140.78 231.491L141.295 232.348ZM142.771 230.764L141.889 230.293L141.883 230.305L142.771 230.764ZM142.771 225.724L141.883 226.183L141.892 226.202L141.903 226.22L142.771 225.724ZM141.295 224.14L140.78 224.997L140.788 225.002L140.795 225.006L141.295 224.14ZM137.155 224.14L136.655 223.274L136.648 223.278L136.64 223.283L137.155 224.14ZM135.679 225.724L134.803 225.241L134.797 225.252L135.679 225.724ZM135.679 230.764L134.785 231.211L134.794 231.229L134.803 231.247L135.679 230.764ZM137.155 232.348L136.64 233.205L136.648 233.21L136.655 233.214L137.155 232.348ZM140.683 237.324C139.066 237.324 137.795 236.992 136.813 236.391L135.769 238.097C137.139 238.936 138.796 239.324 140.683 239.324V237.324ZM136.821 236.396C135.883 235.81 135.144 234.894 134.632 233.571L132.766 234.293C133.406 235.946 134.395 237.238 135.761 238.092L136.821 236.396ZM134.632 233.571C134.116 232.238 133.835 230.464 133.835 228.208H131.835C131.835 230.608 132.13 232.65 132.766 234.293L134.632 233.571ZM133.835 228.208C133.835 226.006 134.126 224.26 134.662 222.93L132.807 222.182C132.144 223.828 131.835 225.85 131.835 228.208H133.835ZM134.657 222.943C135.214 221.614 135.989 220.69 136.957 220.097L135.913 218.391C134.529 219.238 133.504 220.522 132.813 222.169L134.657 222.943ZM136.957 220.097C137.947 219.491 139.174 219.164 140.683 219.164V217.164C138.88 217.164 137.275 217.557 135.913 218.391L136.957 220.097ZM140.683 219.164C142.299 219.164 143.735 219.533 145.014 220.258L146 218.518C144.399 217.611 142.619 217.164 140.683 217.164V219.164ZM145.02 220.261C146.316 220.984 147.336 222.011 148.089 223.366L149.837 222.394C148.91 220.725 147.626 219.424 145.994 218.515L145.02 220.261ZM148.098 223.382C148.857 224.69 149.259 226.285 149.259 228.208H151.259C151.259 226.003 150.796 224.046 149.828 222.378L148.098 223.382ZM149.259 228.208C149.259 230.157 148.857 231.778 148.095 233.112L149.831 234.104C150.797 232.414 151.259 230.435 151.259 228.208H149.259ZM148.092 233.116C147.339 234.45 146.315 235.483 145.009 236.233L146.005 237.967C147.627 237.037 148.907 235.742 149.834 234.1L148.092 233.116ZM145.014 236.23C143.735 236.955 142.299 237.324 140.683 237.324V239.324C142.619 239.324 144.399 238.877 146 237.97L145.014 236.23ZM129.407 238V211.288H127.407V238H129.407ZM128.407 212.288H135.247V210.288H128.407V212.288ZM134.247 211.288V221.764H136.247V211.288H134.247ZM134.248 221.708L133.888 228.152L135.885 228.264L136.245 221.82L134.248 221.708ZM133.887 228.214L133.923 234.658L135.923 234.646L135.887 228.202L133.887 228.214ZM133.923 234.652V238H135.923V234.652H133.923ZM134.923 237H128.407V239H134.923V237ZM139.243 233.888C140.174 233.888 141.039 233.668 141.809 233.205L140.78 231.491C140.351 231.748 139.848 231.888 139.243 231.888V233.888ZM141.795 233.214C142.599 232.75 143.219 232.074 143.659 231.223L141.883 230.305C141.603 230.846 141.239 231.226 140.795 231.482L141.795 233.214ZM143.653 231.235C144.129 230.343 144.347 229.323 144.347 228.208H142.347C142.347 229.061 142.181 229.745 141.889 230.293L143.653 231.235ZM144.347 228.208C144.347 227.096 144.13 226.087 143.639 225.228L141.903 226.22C142.18 226.705 142.347 227.352 142.347 228.208H144.347ZM143.659 225.265C143.219 224.414 142.599 223.738 141.795 223.274L140.795 225.006C141.239 225.262 141.603 225.642 141.883 226.183L143.659 225.265ZM141.809 223.283C141.039 222.82 140.174 222.6 139.243 222.6V224.6C139.848 224.6 140.351 224.74 140.78 224.997L141.809 223.283ZM139.243 222.6C138.312 222.6 137.441 222.82 136.655 223.274L137.655 225.006C138.117 224.74 138.638 224.6 139.243 224.6V222.6ZM136.64 223.283C135.869 223.745 135.261 224.412 134.803 225.241L136.555 226.207C136.865 225.644 137.24 225.255 137.669 224.997L136.64 223.283ZM134.797 225.252C134.34 226.105 134.139 227.106 134.139 228.208H136.139C136.139 227.342 136.298 226.687 136.56 226.196L134.797 225.252ZM134.139 228.208C134.139 229.313 134.341 230.325 134.785 231.211L136.573 230.317C136.297 229.763 136.139 229.071 136.139 228.208H134.139ZM134.803 231.247C135.261 232.076 135.869 232.743 136.64 233.205L137.669 231.491C137.24 231.233 136.865 230.844 136.555 230.281L134.803 231.247ZM136.655 233.214C137.441 233.668 138.312 233.888 139.243 233.888V231.888C138.638 231.888 138.117 231.748 137.655 231.482L136.655 233.214ZM157.614 237.028L157.152 237.915L157.159 237.919L157.167 237.922L157.614 237.028ZM153.618 233.428L152.764 233.948L152.769 233.956L152.774 233.964L153.618 233.428ZM153.582 223.024L152.728 222.504L152.726 222.508L153.582 223.024ZM157.434 219.46L157.892 220.349L157.902 220.344L157.434 219.46ZM168.198 219.352L167.751 220.246L167.762 220.252L168.198 219.352ZM171.978 222.772L172.828 222.246L172.828 222.246L171.978 222.772ZM173.346 229.108L174.343 229.185L174.343 229.185L173.346 229.108ZM173.274 229.972V230.972H174.187L174.27 230.063L173.274 229.972ZM157.83 229.972H156.83V230.972H157.83V229.972ZM157.83 226.372V225.372H156.83V226.372H157.83ZM169.638 226.372L170.001 227.304L169.638 225.372V226.372ZM167.046 227.38L166.047 227.353L166.006 228.858L167.409 228.312L167.046 227.38ZM166.542 225.076L165.654 225.536L165.661 225.549L165.668 225.562L166.542 225.076ZM165.102 223.564L164.588 224.421L164.595 224.426L164.602 224.43L165.102 223.564ZM160.818 223.564L160.318 222.698L160.311 222.702L160.304 222.707L160.818 223.564ZM159.414 225.112L160.302 225.572L160.305 225.566L160.309 225.559L159.414 225.112ZM159.486 230.944L158.611 231.427L158.617 231.438L158.623 231.45L159.486 230.944ZM161.214 232.564L160.756 233.453L160.767 233.459L160.779 233.464L161.214 232.564ZM166.326 232.708L166.692 233.639L166.7 233.635L166.709 233.632L166.326 232.708ZM168.378 231.412L169.099 230.719L168.444 230.038L167.727 230.653L168.378 231.412ZM171.978 235.156L172.719 235.828L173.346 235.136L172.699 234.463L171.978 235.156ZM168.522 237.532L168.882 238.465L168.889 238.462L168.896 238.459L168.522 237.532ZM163.662 237.324C161.484 237.324 159.626 236.916 158.061 236.134L157.167 237.922C159.058 238.868 161.233 239.324 163.662 239.324V237.324ZM158.076 236.141C156.517 235.328 155.321 234.245 154.462 232.892L152.774 233.964C153.835 235.635 155.304 236.952 157.152 237.915L158.076 236.141ZM154.472 232.908C153.639 231.541 153.214 229.984 153.214 228.208H151.214C151.214 230.32 151.725 232.243 152.764 233.948L154.472 232.908ZM153.214 228.208C153.214 226.427 153.63 224.881 154.438 223.54L152.726 222.508C151.711 224.191 151.214 226.101 151.214 228.208H153.214ZM154.436 223.544C155.274 222.169 156.42 221.107 157.892 220.349L156.977 218.571C155.185 219.493 153.762 220.807 152.728 222.504L154.436 223.544ZM157.902 220.344C159.375 219.564 161.048 219.164 162.942 219.164V217.164C160.756 217.164 158.757 217.628 156.966 218.576L157.902 220.344ZM162.942 219.164C164.72 219.164 166.317 219.53 167.751 220.246L168.645 218.458C166.911 217.59 165.004 217.164 162.942 217.164V219.164ZM167.762 220.252C169.173 220.936 170.291 221.946 171.128 223.298L172.828 222.246C171.794 220.574 170.391 219.304 168.634 218.452L167.762 220.252ZM171.128 223.298C171.947 224.621 172.382 226.266 172.382 228.28H174.382C174.382 225.974 173.881 223.947 172.828 222.246L171.128 223.298ZM172.382 228.28C172.382 228.488 172.372 228.738 172.349 229.031L174.343 229.185C174.369 228.854 174.382 228.552 174.382 228.28H172.382ZM172.349 229.031C172.325 229.339 172.302 229.623 172.278 229.881L174.27 230.063C174.295 229.793 174.319 229.501 174.343 229.185L172.349 229.031ZM173.274 228.972H157.83V230.972H173.274V228.972ZM158.83 229.972V226.372H156.83V229.972H158.83ZM157.83 227.372H169.638V225.372H157.83V227.372ZM169.276 225.44L166.684 226.448L167.409 228.312L170.001 227.304L169.276 225.44ZM168.046 227.407C168.074 226.376 167.879 225.423 167.416 224.59L165.668 225.562C165.925 226.025 166.067 226.608 166.047 227.353L168.046 227.407ZM167.43 224.616C167.007 223.8 166.394 223.155 165.602 222.698L164.602 224.43C165.059 224.693 165.405 225.056 165.654 225.536L167.43 224.616ZM165.617 222.707C164.837 222.239 163.945 222.024 162.978 222.024V224.024C163.643 224.024 164.167 224.169 164.588 224.421L165.617 222.707ZM162.978 222.024C162.01 222.024 161.114 222.239 160.318 222.698L161.318 224.43C161.771 224.169 162.314 224.024 162.978 224.024V222.024ZM160.304 222.707C159.528 223.172 158.934 223.836 158.52 224.665L160.309 225.559C160.566 225.044 160.908 224.676 161.333 224.421L160.304 222.707ZM158.526 224.652C158.102 225.47 157.91 226.402 157.91 227.416H159.91C159.91 226.654 160.054 226.05 160.302 225.572L158.526 224.652ZM157.91 227.416V228.46H159.91V227.416H157.91ZM157.91 228.46C157.91 229.554 158.13 230.555 158.611 231.427L160.362 230.461C160.075 229.941 159.91 229.286 159.91 228.46H157.91ZM158.623 231.45C159.131 232.315 159.85 232.985 160.756 233.453L161.673 231.675C161.09 231.375 160.657 230.965 160.349 230.438L158.623 231.45ZM160.779 233.464C161.688 233.904 162.732 234.104 163.878 234.104V232.104C162.96 232.104 162.228 231.944 161.65 231.664L160.779 233.464ZM163.878 234.104C164.924 234.104 165.872 233.961 166.692 233.639L165.961 231.777C165.436 231.983 164.752 232.104 163.878 232.104V234.104ZM166.709 233.632C167.518 233.297 168.29 232.804 169.029 232.171L167.727 230.653C167.122 231.172 166.527 231.543 165.944 231.784L166.709 233.632ZM167.657 232.105L171.257 235.849L172.699 234.463L169.099 230.719L167.657 232.105ZM171.237 234.484C170.409 235.398 169.385 236.106 168.148 236.605L168.896 238.459C170.396 237.854 171.676 236.978 172.719 235.828L171.237 234.484ZM168.162 236.599C166.936 237.072 165.444 237.324 163.662 237.324V239.324C165.625 239.324 167.372 239.048 168.882 238.465L168.162 236.599ZM179.416 236.488L178.748 237.233L178.756 237.239L179.416 236.488ZM177.328 214.132V213.132H176.328V214.132H177.328ZM184.168 214.132H185.168V213.132H184.168V214.132ZM184.744 232.456L184.016 233.141L184.026 233.152L184.037 233.163L184.744 232.456ZM188.308 232.42L189.251 232.087L188.81 230.839L187.73 231.604L188.308 232.42ZM190 237.208L190.555 238.04L191.202 237.608L190.943 236.875L190 237.208ZM187.876 238.036L187.68 237.055L187.666 237.058L187.653 237.061L187.876 238.036ZM174.484 224.32H173.484V225.32H174.484V224.32ZM174.484 219.208V218.208H173.484V219.208H174.484ZM188.632 219.208H189.632V218.208H188.632V219.208ZM188.632 224.32V225.32H189.632V224.32H188.632ZM185.248 237.324C182.91 237.324 181.231 236.752 180.076 235.737L178.756 237.239C180.385 238.672 182.594 239.324 185.248 239.324V237.324ZM180.083 235.743C178.967 234.743 178.328 233.184 178.328 230.872H176.328C176.328 233.552 177.08 235.737 178.748 237.233L180.083 235.743ZM178.328 230.872V214.132H176.328V230.872H178.328ZM177.328 215.132H184.168V213.132H177.328V215.132ZM183.168 214.132V230.8H185.168V214.132H183.168ZM183.168 230.8C183.168 231.686 183.417 232.506 184.016 233.141L185.472 231.771C185.302 231.59 185.168 231.306 185.168 230.8H183.168ZM184.037 233.163C184.629 233.755 185.385 234.032 186.22 234.032V232.032C185.855 232.032 185.627 231.925 185.451 231.749L184.037 233.163ZM186.22 234.032C187.21 234.032 188.116 233.782 188.886 233.236L187.73 231.604C187.348 231.874 186.862 232.032 186.22 232.032V234.032ZM187.365 232.753L189.057 237.541L190.943 236.875L189.251 232.087L187.365 232.753ZM189.445 236.376C189 236.673 188.421 236.907 187.68 237.055L188.072 239.017C189.011 238.829 189.847 238.511 190.555 238.04L189.445 236.376ZM187.653 237.061C186.89 237.235 186.089 237.324 185.248 237.324V239.324C186.23 239.324 187.181 239.221 188.099 239.011L187.653 237.061ZM175.484 224.32V219.208H173.484V224.32H175.484ZM174.484 220.208H188.632V218.208H174.484V220.208ZM187.632 219.208V224.32H189.632V219.208H187.632ZM188.632 223.32H174.484V225.32H188.632V223.32ZM195.131 236.488L194.463 237.233L194.47 237.239L195.131 236.488ZM193.043 214.132V213.132H192.043V214.132H193.043ZM199.883 214.132H200.883V213.132H199.883V214.132ZM200.459 232.456L199.73 233.141L199.741 233.152L199.752 233.163L200.459 232.456ZM204.023 232.42L204.966 232.087L204.525 230.839L203.445 231.604L204.023 232.42ZM205.715 237.208L206.269 238.04L206.917 237.608L206.658 236.875L205.715 237.208ZM203.591 238.036L203.395 237.055L203.381 237.058L203.368 237.061L203.591 238.036ZM190.199 224.32H189.199V225.32H190.199V224.32ZM190.199 219.208V218.208H189.199V219.208H190.199ZM204.347 219.208H205.347V218.208H204.347V219.208ZM204.347 224.32V225.32H205.347V224.32H204.347ZM200.963 237.324C198.625 237.324 196.945 236.752 195.791 235.737L194.47 237.239C196.1 238.672 198.309 239.324 200.963 239.324V237.324ZM195.798 235.743C194.682 234.743 194.043 233.184 194.043 230.872H192.043C192.043 233.552 192.795 235.737 194.463 237.233L195.798 235.743ZM194.043 230.872V214.132H192.043V230.872H194.043ZM193.043 215.132H199.883V213.132H193.043V215.132ZM198.883 214.132V230.8H200.883V214.132H198.883ZM198.883 230.8C198.883 231.686 199.132 232.506 199.73 233.141L201.187 231.771C201.017 231.59 200.883 231.306 200.883 230.8H198.883ZM199.752 233.163C200.344 233.755 201.1 234.032 201.935 234.032V232.032C201.569 232.032 201.342 231.925 201.166 231.749L199.752 233.163ZM201.935 234.032C202.924 234.032 203.83 233.782 204.601 233.236L203.445 231.604C203.063 231.874 202.577 232.032 201.935 232.032V234.032ZM203.08 232.753L204.772 237.541L206.658 236.875L204.966 232.087L203.08 232.753ZM205.16 236.376C204.715 236.673 204.136 236.907 203.395 237.055L203.787 239.017C204.725 238.829 205.562 238.511 206.269 238.04L205.16 236.376ZM203.368 237.061C202.605 237.235 201.804 237.324 200.963 237.324V239.324C201.945 239.324 202.896 239.221 203.814 239.011L203.368 237.061ZM191.199 224.32V219.208H189.199V224.32H191.199ZM190.199 220.208H204.347V218.208H190.199V220.208ZM203.347 219.208V224.32H205.347V219.208H203.347ZM204.347 223.32H190.199V225.32H204.347V223.32ZM211.966 237.028L211.504 237.915L211.511 237.919L211.519 237.922L211.966 237.028ZM207.97 233.428L207.116 233.948L207.121 233.956L207.126 233.964L207.97 233.428ZM207.934 223.024L207.08 222.504L207.077 222.508L207.934 223.024ZM211.786 219.46L212.243 220.349L212.254 220.344L211.786 219.46ZM222.55 219.352L222.103 220.246L222.113 220.252L222.55 219.352ZM226.33 222.772L227.18 222.246L227.18 222.246L226.33 222.772ZM227.698 229.108L228.695 229.185L228.695 229.185L227.698 229.108ZM227.626 229.972V230.972H228.539L228.622 230.063L227.626 229.972ZM212.182 229.972H211.182V230.972H212.182V229.972ZM212.182 226.372V225.372H211.182V226.372H212.182ZM223.99 226.372L224.352 227.304L223.99 225.372V226.372ZM221.398 227.38L220.398 227.353L220.357 228.858L221.76 228.312L221.398 227.38ZM220.894 225.076L220.006 225.536L220.013 225.549L220.02 225.562L220.894 225.076ZM219.454 223.564L218.939 224.421L218.947 224.426L218.954 224.43L219.454 223.564ZM215.17 223.564L214.67 222.698L214.663 222.702L214.655 222.707L215.17 223.564ZM213.766 225.112L214.654 225.572L214.657 225.566L214.66 225.559L213.766 225.112ZM213.838 230.944L212.962 231.427L212.968 231.438L212.975 231.45L213.838 230.944ZM215.566 232.564L215.107 233.453L215.119 233.459L215.13 233.464L215.566 232.564ZM220.678 232.708L221.043 233.639L221.052 233.635L221.06 233.632L220.678 232.708ZM222.73 231.412L223.451 230.719L222.796 230.038L222.079 230.653L222.73 231.412ZM226.33 235.156L227.07 235.828L227.698 235.136L227.051 234.463L226.33 235.156ZM222.874 237.532L223.234 238.465L223.241 238.462L223.248 238.459L222.874 237.532ZM218.014 237.324C215.835 237.324 213.978 236.916 212.413 236.134L211.519 237.922C213.41 238.868 215.584 239.324 218.014 239.324V237.324ZM212.428 236.141C210.868 235.328 209.673 234.245 208.814 232.892L207.126 233.964C208.187 235.635 209.655 236.952 211.504 237.915L212.428 236.141ZM208.824 232.908C207.991 231.541 207.566 229.984 207.566 228.208H205.566C205.566 230.32 206.077 232.243 207.116 233.948L208.824 232.908ZM207.566 228.208C207.566 226.427 207.981 224.881 208.79 223.54L207.077 222.508C206.062 224.191 205.566 226.101 205.566 228.208H207.566ZM208.788 223.544C209.626 222.169 210.771 221.107 212.243 220.349L211.328 218.571C209.536 219.493 208.114 220.807 207.08 222.504L208.788 223.544ZM212.254 220.344C213.727 219.564 215.399 219.164 217.294 219.164V217.164C215.108 217.164 213.109 217.628 211.318 218.576L212.254 220.344ZM217.294 219.164C219.072 219.164 220.669 219.53 222.103 220.246L222.997 218.458C221.263 217.59 219.356 217.164 217.294 217.164V219.164ZM222.113 220.252C223.525 220.936 224.642 221.946 225.479 223.298L227.18 222.246C226.145 220.574 224.742 219.304 222.986 218.452L222.113 220.252ZM225.479 223.298C226.298 224.621 226.734 226.266 226.734 228.28H228.734C228.734 225.974 228.233 223.947 227.18 222.246L225.479 223.298ZM226.734 228.28C226.734 228.488 226.723 228.738 226.701 229.031L228.695 229.185C228.72 228.854 228.734 228.552 228.734 228.28H226.734ZM226.701 229.031C226.677 229.339 226.653 229.623 226.63 229.881L228.622 230.063C228.646 229.793 228.671 229.501 228.695 229.185L226.701 229.031ZM227.626 228.972H212.182V230.972H227.626V228.972ZM213.182 229.972V226.372H211.182V229.972H213.182ZM212.182 227.372H223.99V225.372H212.182V227.372ZM223.627 225.44L221.035 226.448L221.76 228.312L224.352 227.304L223.627 225.44ZM222.397 227.407C222.425 226.376 222.231 225.423 221.768 224.59L220.02 225.562C220.277 226.025 220.418 226.608 220.398 227.353L222.397 227.407ZM221.782 224.616C221.359 223.8 220.745 223.155 219.953 222.698L218.954 224.43C219.41 224.693 219.757 225.056 220.006 225.536L221.782 224.616ZM219.968 222.707C219.189 222.239 218.296 222.024 217.33 222.024V224.024C217.995 224.024 218.519 224.169 218.939 224.421L219.968 222.707ZM217.33 222.024C216.362 222.024 215.465 222.239 214.67 222.698L215.669 224.43C216.122 224.169 216.665 224.024 217.33 224.024V222.024ZM214.655 222.707C213.88 223.172 213.286 223.836 212.871 224.665L214.66 225.559C214.918 225.044 215.259 224.676 215.684 224.421L214.655 222.707ZM212.878 224.652C212.454 225.47 212.262 226.402 212.262 227.416H214.262C214.262 226.654 214.406 226.05 214.654 225.572L212.878 224.652ZM212.262 227.416V228.46H214.262V227.416H212.262ZM212.262 228.46C212.262 229.554 212.481 230.555 212.962 231.427L214.713 230.461C214.426 229.941 214.262 229.286 214.262 228.46H212.262ZM212.975 231.45C213.483 232.315 214.202 232.985 215.107 233.453L216.024 231.675C215.442 231.375 215.009 230.965 214.7 230.438L212.975 231.45ZM215.13 233.464C216.039 233.904 217.083 234.104 218.23 234.104V232.104C217.312 232.104 216.58 231.944 216.001 231.664L215.13 233.464ZM218.23 234.104C219.276 234.104 220.223 233.961 221.043 233.639L220.312 231.777C219.788 231.983 219.104 232.104 218.23 232.104V234.104ZM221.06 233.632C221.869 233.297 222.642 232.804 223.381 232.171L222.079 230.653C221.473 231.172 220.878 231.543 220.295 231.784L221.06 233.632ZM222.009 232.105L225.609 235.849L227.051 234.463L223.451 230.719L222.009 232.105ZM225.589 234.484C224.76 235.398 223.736 236.106 222.5 236.605L223.248 238.459C224.747 237.854 226.027 236.978 227.07 235.828L225.589 234.484ZM222.514 236.599C221.287 237.072 219.795 237.324 218.014 237.324V239.324C219.976 239.324 221.724 239.048 223.234 238.465L222.514 236.599ZM230.887 238H229.887V239H230.887V238ZM230.887 218.488V217.488H229.887V218.488H230.887ZM237.403 218.488H238.403V217.488H237.403V218.488ZM237.403 224.176L236.546 224.69L238.403 227.786V224.176H237.403ZM236.431 222.556L235.501 222.19L235.321 222.648L235.574 223.07L236.431 222.556ZM239.239 219.28L239.725 220.154L239.737 220.147L239.239 219.28ZM243.955 218.164H244.955V217.164H243.955V218.164ZM243.955 224.32L243.803 225.308L244.955 225.486V224.32H243.955ZM243.127 224.248L243.017 225.242L243.072 225.248H243.127V224.248ZM239.023 225.364L239.676 226.122L239.682 226.117L239.688 226.111L239.023 225.364ZM237.727 238V239H238.727V238H237.727ZM231.887 238V218.488H229.887V238H231.887ZM230.887 219.488H237.403V217.488H230.887V219.488ZM236.403 218.488V224.176H238.403V218.488H236.403ZM238.261 223.662L237.289 222.042L235.574 223.07L236.546 224.69L238.261 223.662ZM237.362 222.922C237.859 221.66 238.645 220.754 239.725 220.154L238.754 218.406C237.242 219.246 236.156 220.524 235.501 222.19L237.362 222.922ZM239.737 220.147C240.85 219.509 242.241 219.164 243.955 219.164V217.164C241.974 217.164 240.221 217.563 238.742 218.413L239.737 220.147ZM242.955 218.164V224.32H244.955V218.164H242.955ZM244.107 223.332C243.76 223.278 243.431 223.248 243.127 223.248V225.248C243.304 225.248 243.527 225.266 243.803 225.308L244.107 223.332ZM243.238 223.254C242.978 223.225 242.701 223.212 242.407 223.212V225.212C242.642 225.212 242.844 225.223 243.017 225.242L243.238 223.254ZM242.407 223.212C240.823 223.212 239.442 223.654 238.359 224.617L239.688 226.111C240.333 225.538 241.208 225.212 242.407 225.212V223.212ZM238.371 224.606C237.196 225.618 236.727 227.187 236.727 229.036H238.727C238.727 227.477 239.123 226.598 239.676 226.122L238.371 224.606ZM236.727 229.036V238H238.727V229.036H236.727ZM237.727 237H230.887V239H237.727V237ZM257.325 238H256.325V239H257.325V238ZM257.325 218.488V217.488H256.325V218.488H257.325ZM263.841 218.488H264.841V217.488H263.841V218.488ZM263.841 224.176L262.983 224.69L264.841 227.786V224.176H263.841ZM262.869 222.556L261.938 222.19L261.758 222.648L262.011 223.07L262.869 222.556ZM265.677 219.28L266.163 220.154L266.175 220.147L265.677 219.28ZM270.393 218.164H271.393V217.164H270.393V218.164ZM270.393 224.32L270.241 225.308L271.393 225.486V224.32H270.393ZM269.565 224.248L269.454 225.242L269.51 225.248H269.565V224.248ZM265.461 225.364L266.113 226.122L266.119 226.117L266.125 226.111L265.461 225.364ZM264.165 238V239H265.165V238H264.165ZM258.325 238V218.488H256.325V238H258.325ZM257.325 219.488H263.841V217.488H257.325V219.488ZM262.841 218.488V224.176H264.841V218.488H262.841ZM264.698 223.662L263.726 222.042L262.011 223.07L262.983 224.69L264.698 223.662ZM263.799 222.922C264.296 221.66 265.082 220.754 266.163 220.154L265.191 218.406C263.68 219.246 262.594 220.524 261.938 222.19L263.799 222.922ZM266.175 220.147C267.287 219.509 268.679 219.164 270.393 219.164V217.164C268.411 217.164 266.659 217.563 265.179 218.413L266.175 220.147ZM269.393 218.164V224.32H271.393V218.164H269.393ZM270.545 223.332C270.197 223.278 269.869 223.248 269.565 223.248V225.248C269.741 225.248 269.964 225.266 270.241 225.308L270.545 223.332ZM269.675 223.254C269.416 223.225 269.138 223.212 268.845 223.212V225.212C269.08 225.212 269.282 225.223 269.454 225.242L269.675 223.254ZM268.845 223.212C267.261 223.212 265.879 223.654 264.797 224.617L266.125 226.111C266.77 225.538 267.645 225.212 268.845 225.212V223.212ZM264.808 224.606C263.633 225.618 263.165 227.187 263.165 229.036H265.165C265.165 227.477 265.561 226.598 266.113 226.122L264.808 224.606ZM263.165 229.036V238H265.165V229.036H263.165ZM264.165 237H257.325V239H264.165V237ZM277.216 237.028L276.754 237.915L276.761 237.919L276.769 237.922L277.216 237.028ZM273.22 233.428L272.366 233.948L272.371 233.956L272.376 233.964L273.22 233.428ZM273.184 223.024L272.33 222.504L272.327 222.508L273.184 223.024ZM277.036 219.46L277.493 220.349L277.504 220.344L277.036 219.46ZM287.8 219.352L287.353 220.246L287.363 220.252L287.8 219.352ZM291.58 222.772L292.43 222.246L292.43 222.246L291.58 222.772ZM292.948 229.108L293.945 229.185L293.945 229.185L292.948 229.108ZM292.876 229.972V230.972H293.789L293.872 230.063L292.876 229.972ZM277.432 229.972H276.432V230.972H277.432V229.972ZM277.432 226.372V225.372H276.432V226.372H277.432ZM289.24 226.372L289.602 227.304L289.24 225.372V226.372ZM286.648 227.38L285.648 227.353L285.607 228.858L287.01 228.312L286.648 227.38ZM286.144 225.076L285.256 225.536L285.263 225.549L285.27 225.562L286.144 225.076ZM284.704 223.564L284.189 224.421L284.197 224.426L284.204 224.43L284.704 223.564ZM280.42 223.564L279.92 222.698L279.913 222.702L279.905 222.707L280.42 223.564ZM279.016 225.112L279.904 225.572L279.907 225.566L279.91 225.559L279.016 225.112ZM279.088 230.944L278.212 231.427L278.218 231.438L278.225 231.45L279.088 230.944ZM280.816 232.564L280.357 233.453L280.369 233.459L280.38 233.464L280.816 232.564ZM285.928 232.708L286.293 233.639L286.302 233.635L286.31 233.632L285.928 232.708ZM287.98 231.412L288.701 230.719L288.046 230.038L287.329 230.653L287.98 231.412ZM291.58 235.156L292.32 235.828L292.948 235.136L292.301 234.463L291.58 235.156ZM288.124 237.532L288.484 238.465L288.491 238.462L288.498 238.459L288.124 237.532ZM283.264 237.324C281.085 237.324 279.228 236.916 277.663 236.134L276.769 237.922C278.66 238.868 280.834 239.324 283.264 239.324V237.324ZM277.678 236.141C276.118 235.328 274.923 234.245 274.064 232.892L272.376 233.964C273.437 235.635 274.905 236.952 276.754 237.915L277.678 236.141ZM274.074 232.908C273.241 231.541 272.816 229.984 272.816 228.208H270.816C270.816 230.32 271.327 232.243 272.366 233.948L274.074 232.908ZM272.816 228.208C272.816 226.427 273.231 224.881 274.04 223.54L272.327 222.508C271.312 224.191 270.816 226.101 270.816 228.208H272.816ZM274.038 223.544C274.876 222.169 276.021 221.107 277.493 220.349L276.578 218.571C274.786 219.493 273.364 220.807 272.33 222.504L274.038 223.544ZM277.504 220.344C278.977 219.564 280.649 219.164 282.544 219.164V217.164C280.358 217.164 278.359 217.628 276.568 218.576L277.504 220.344ZM282.544 219.164C284.322 219.164 285.919 219.53 287.353 220.246L288.247 218.458C286.513 217.59 284.606 217.164 282.544 217.164V219.164ZM287.363 220.252C288.775 220.936 289.892 221.946 290.729 223.298L292.43 222.246C291.395 220.574 289.992 219.304 288.236 218.452L287.363 220.252ZM290.729 223.298C291.548 224.621 291.984 226.266 291.984 228.28H293.984C293.984 225.974 293.483 223.947 292.43 222.246L290.729 223.298ZM291.984 228.28C291.984 228.488 291.973 228.738 291.951 229.031L293.945 229.185C293.97 228.854 293.984 228.552 293.984 228.28H291.984ZM291.951 229.031C291.927 229.339 291.903 229.623 291.88 229.881L293.872 230.063C293.896 229.793 293.921 229.501 293.945 229.185L291.951 229.031ZM292.876 228.972H277.432V230.972H292.876V228.972ZM278.432 229.972V226.372H276.432V229.972H278.432ZM277.432 227.372H289.24V225.372H277.432V227.372ZM288.877 225.44L286.285 226.448L287.01 228.312L289.602 227.304L288.877 225.44ZM287.647 227.407C287.675 226.376 287.481 225.423 287.018 224.59L285.27 225.562C285.527 226.025 285.668 226.608 285.648 227.353L287.647 227.407ZM287.032 224.616C286.609 223.8 285.995 223.155 285.203 222.698L284.204 224.43C284.66 224.693 285.007 225.056 285.256 225.536L287.032 224.616ZM285.218 222.707C284.439 222.239 283.546 222.024 282.58 222.024V224.024C283.245 224.024 283.769 224.169 284.189 224.421L285.218 222.707ZM282.58 222.024C281.612 222.024 280.715 222.239 279.92 222.698L280.919 224.43C281.372 224.169 281.915 224.024 282.58 224.024V222.024ZM279.905 222.707C279.13 223.172 278.536 223.836 278.121 224.665L279.91 225.559C280.168 225.044 280.509 224.676 280.934 224.421L279.905 222.707ZM278.128 224.652C277.704 225.47 277.512 226.402 277.512 227.416H279.512C279.512 226.654 279.656 226.05 279.904 225.572L278.128 224.652ZM277.512 227.416V228.46H279.512V227.416H277.512ZM277.512 228.46C277.512 229.554 277.731 230.555 278.212 231.427L279.963 230.461C279.676 229.941 279.512 229.286 279.512 228.46H277.512ZM278.225 231.45C278.733 232.315 279.452 232.985 280.357 233.453L281.274 231.675C280.692 231.375 280.259 230.965 279.95 230.438L278.225 231.45ZM280.38 233.464C281.289 233.904 282.333 234.104 283.48 234.104V232.104C282.562 232.104 281.83 231.944 281.251 231.664L280.38 233.464ZM283.48 234.104C284.526 234.104 285.473 233.961 286.293 233.639L285.562 231.777C285.038 231.983 284.354 232.104 283.48 232.104V234.104ZM286.31 233.632C287.119 233.297 287.892 232.804 288.631 232.171L287.329 230.653C286.723 231.172 286.128 231.543 285.545 231.784L286.31 233.632ZM287.259 232.105L290.859 235.849L292.301 234.463L288.701 230.719L287.259 232.105ZM290.839 234.484C290.01 235.398 288.986 236.106 287.75 236.605L288.498 238.459C289.997 237.854 291.277 236.978 292.32 235.828L290.839 234.484ZM287.764 236.599C286.537 237.072 285.045 237.324 283.264 237.324V239.324C285.226 239.324 286.974 239.048 288.484 238.465L287.764 236.599ZM296.929 238H295.929V239H296.929V238ZM299.017 213.088L298.31 212.381L298.31 212.381L299.017 213.088ZM307.549 211.216L307.348 212.195L307.348 212.195L307.549 211.216ZM309.601 211.972L310.545 212.303L310.813 211.539L310.121 211.118L309.601 211.972ZM307.909 216.796L307.406 217.66L308.452 218.27L308.853 217.127L307.909 216.796ZM306.937 216.4L306.621 217.349L306.65 217.358L306.68 217.366L306.937 216.4ZM304.165 216.868L303.438 216.181L303.437 216.183L304.165 216.868ZM303.589 220.18H302.589V220.212L302.591 220.243L303.589 220.18ZM303.769 223.024H304.769V222.992L304.767 222.961L303.769 223.024ZM303.769 238V239H304.769V238H303.769ZM294.085 224.32H293.085V225.32H294.085V224.32ZM294.085 219.208V218.208H293.085V219.208H294.085ZM308.233 219.208H309.233V218.208H308.233V219.208ZM308.233 224.32V225.32H309.233V224.32H308.233ZM297.929 238V218.704H295.929V238H297.929ZM297.929 218.704C297.929 216.562 298.556 214.964 299.725 213.795L298.31 212.381C296.695 213.996 295.929 216.142 295.929 218.704H297.929ZM299.725 213.795C300.901 212.619 302.63 211.964 305.065 211.964V209.964C302.269 209.964 299.966 210.725 298.31 212.381L299.725 213.795ZM305.065 211.964C305.838 211.964 306.599 212.041 307.348 212.195L307.751 210.237C306.868 210.055 305.973 209.964 305.065 209.964V211.964ZM307.348 212.195C308.082 212.347 308.651 212.564 309.081 212.826L310.121 211.118C309.447 210.708 308.649 210.421 307.751 210.237L307.348 212.195ZM308.658 211.641L306.966 216.465L308.853 217.127L310.545 212.303L308.658 211.641ZM308.413 215.932C308.04 215.714 307.631 215.55 307.195 215.434L306.68 217.366C306.963 217.442 307.203 217.542 307.406 217.66L308.413 215.932ZM307.254 215.451C306.797 215.299 306.331 215.22 305.857 215.22V217.22C306.104 217.22 306.358 217.261 306.621 217.349L307.254 215.451ZM305.857 215.22C304.925 215.22 304.074 215.508 303.438 216.181L304.892 217.555C305.072 217.364 305.35 217.22 305.857 217.22V215.22ZM303.437 216.183C302.805 216.855 302.589 217.791 302.589 218.776H304.589C304.589 218.033 304.758 217.697 304.894 217.553L303.437 216.183ZM302.589 218.776V220.18H304.589V218.776H302.589ZM302.591 220.243L302.771 223.087L304.767 222.961L304.587 220.117L302.591 220.243ZM302.769 223.024V238H304.769V223.024H302.769ZM303.769 237H296.929V239H303.769V237ZM295.085 224.32V219.208H293.085V224.32H295.085ZM294.085 220.208H308.233V218.208H294.085V220.208ZM307.233 219.208V224.32H309.233V219.208H307.233ZM308.233 223.32H294.085V225.32H308.233V223.32Z" fill="#0D1117" mask="url(#path-5-outside-1_401_9)"/>
<defs>
<filter id="filter0_d_401_9" x="24.7412" y="73.25" width="345.781" height="134.844" filterUnits="userSpaceOnUse" color-interpolation-filters="sRGB">
<feFlood flood-opacity="0" result="BackgroundImageFix"/>
<feColorMatrix in="SourceAlpha" type="matrix" values="0 0 0 0 0 0 0 0 0 0 0 0 0 0 0 0 0 0 127 0" result="hardAlpha"/>
<feOffset dy="5"/>
<feGaussianBlur stdDeviation="12.5"/>
<feComposite in2="hardAlpha" operator="out"/>
<feColorMatrix type="matrix" values="0 0 0 0 0.254902 0 0 0 0 0.721569 0 0 0 0 0.513726 0 0 0 0.38 0"/>
<feBlend mode="normal" in2="BackgroundImageFix" result="effect1_dropShadow_401_9"/>
<feBlend mode="normal" in="SourceGraphic" in2="effect1_dropShadow_401_9" result="shape"/>
</filter>
<linearGradient id="paint0_linear_401_9" x1="199.5" y1="69" x2="199.5" y2="213" gradientUnits="userSpaceOnUse">
<stop offset="0.493056" stop-color="#42D392"/>
<stop offset="1" stop-color="#647EFF"/>
</linearGradient>
</defs>
</svg>
